<svg width="130" height="56" viewBox="0 0 130 56" fill="none" xmlns="http://www.w3.org/2000/svg">
<g clip-path="url(#clip0_5805_2861)">
<path d="M40 0H0V41.9095H40V0Z" fill="#F2EEEB"/>
<path d="M85 0H45V41.9095H85V0Z" fill="#F2EEEB"/>
<path d="M130 0H90V41.9095H130V0Z" fill="#F2EEEB"/>
<path d="M28.817 7.02784H30.2982L32.9061 16.3134L30.9936 16.8324C29.9654 14.6894 29.1826 13.2521 28.6482 12.5186C27.7701 11.3334 26.6764 10.3953 25.367 9.70284C24.0576 9.01035 22.6139 8.66493 21.0373 8.66493C19.1857 8.66493 17.6217 9.14787 16.0654 10.1138C14.5092 11.0796 13.2482 12.4957 12.2811 14.3604C11.3154 16.225 10.8311 18.3238 10.8311 20.655C10.8311 22.9862 11.3217 25.1914 12.3014 27.0691C13.2811 28.9469 14.6076 30.3924 16.2811 31.4058C17.9545 32.4191 19.617 32.925 21.5498 32.925C23.3732 32.925 25.2389 32.4175 27.1451 31.4025C29.0514 30.3875 30.7029 28.9649 32.1014 27.1346L33.7467 28.2331C32.8967 29.4576 31.9779 30.4955 30.9904 31.3485C29.4279 32.7204 27.8014 33.7321 26.1154 34.3836C24.4295 35.0352 22.5779 35.3626 20.5623 35.3626C16.1061 35.3626 12.4857 33.7583 9.70137 30.5512C7.39668 27.8893 6.24512 24.7215 6.24512 21.0463C6.24512 18.3434 6.88262 15.8976 8.15762 13.7088C9.43262 11.52 11.1904 9.77815 13.4326 8.48648C15.6748 7.19482 18.0904 6.5498 20.6826 6.5498C22.067 6.5498 23.3529 6.73316 24.5389 7.09823C25.7248 7.46494 26.9279 8.05266 28.1482 8.86465L28.8107 7.02784H28.817Z" fill="#836F59"/>
<path d="M58.75 6.54834H71.25V8.28366H69.5922C68.9281 8.28366 68.4469 8.39498 68.15 8.61599C67.8516 8.83699 67.6344 9.15295 67.4984 9.56059C67.3609 9.96986 67.2922 10.7622 67.2922 11.9393V30.5072C67.2922 31.4436 67.3656 32.1083 67.5156 32.4995C67.6641 32.8924 67.8734 33.1773 68.1422 33.3574C68.4109 33.5358 68.8938 33.6258 69.5922 33.6258H71.25V35.3612H58.75V33.6258H60.4766C61.1516 33.6258 61.6297 33.5325 61.9094 33.3475C62.1891 33.1609 62.3922 32.8924 62.5187 32.5421C62.6437 32.1917 62.7078 31.5124 62.7078 30.5072V11.5055C62.7078 10.4381 62.6437 9.72102 62.5187 9.35432C62.3922 8.98761 62.1891 8.71749 61.9094 8.54395C61.6281 8.37042 61.1516 8.28366 60.4766 8.28366H58.75V6.54834Z" fill="#836F59"/>
<path d="M96.2501 8.28366V6.54834H105.794C110.163 6.54834 113.209 6.84465 114.934 7.43728C117.477 8.30494 119.539 9.92239 121.125 12.2913C122.875 14.9073 123.75 17.9163 123.75 21.3165C123.75 23.6298 123.319 25.7809 122.456 27.7716C121.594 29.7623 120.459 31.3617 119.055 32.5732C117.892 33.5931 116.492 34.3118 114.858 34.7309C113.222 35.1516 111.575 35.3612 109.914 35.3612H96.2501V33.6258H97.361L97.7251 33.6471C98.197 33.6471 98.5845 33.544 98.8845 33.3377C99.1845 33.1314 99.3985 32.8564 99.5267 32.511C99.6157 32.249 99.661 31.6433 99.661 30.6938V11.4236C99.661 10.3284 99.597 9.62116 99.4688 9.30357C99.2892 8.87465 99.0017 8.5767 98.6064 8.40971C98.3767 8.32622 97.5907 8.28529 96.2485 8.28529L96.2501 8.28366ZM103.125 33.1511H107.855C108.43 33.1511 109.656 33.0414 110.994 32.8204C112.33 32.5994 113.016 32.3309 113.591 32.0149C114.434 31.5467 115.899 30.792 116.691 29.7508C117.483 28.7097 118.094 27.4638 118.522 26.0084C118.95 24.5547 119.166 22.8914 119.166 21.017C119.166 19.1425 118.952 17.5447 118.522 16.1794C118.094 14.8157 117.447 13.5878 116.584 12.4992C115.72 11.4105 114.763 10.5805 113.706 10.0075C112.65 9.43453 111.097 9.07437 109.792 8.92212C109.089 8.85337 107.641 8.81899 105.991 8.81899H103.122V33.1494L103.125 33.1511Z" fill="#836F59"/>
<path d="M5.95001 55.5631C5.55626 55.7187 4.775 55.9544 3.85782 55.9544C2.82657 55.9544 1.97501 55.681 1.31407 55.0131C0.72813 54.4221 0.36563 53.4758 0.367193 52.3659C0.370318 50.2393 1.76563 48.6841 4.04532 48.6841C4.83125 48.6841 5.45469 48.8658 5.74688 49.0115L5.52813 49.7629C5.16563 49.5894 4.71094 49.4584 4.02501 49.4584C2.37501 49.4584 1.29219 50.5356 1.29219 52.3201C1.29219 54.1045 2.32657 55.1964 3.91876 55.1964C4.49375 55.1964 4.88282 55.1113 5.08594 55.0049V52.8816H3.70938V52.1449H5.95001V55.5664V55.5631Z" fill="#F2EEEB"/>
<path d="M9.30469 48.7544H10.1875V55.1063H13.0969V55.8839H9.30469V48.756V48.7544Z" fill="#F2EEEB"/>
<path d="M21.5124 52.248C21.5124 54.6938 20.0905 56.0002 18.3562 56.0002C16.6218 56.0002 15.2983 54.5366 15.2983 52.3822C15.2983 50.2278 16.6327 48.6382 18.4483 48.6382C20.264 48.6382 21.5124 50.1296 21.5124 52.248ZM16.228 52.3609C16.228 53.8867 17.0187 55.252 18.4046 55.252C19.7905 55.252 20.5843 53.9096 20.5843 52.2889C20.5843 50.8695 19.878 49.388 18.4155 49.388C16.953 49.388 16.228 50.8024 16.228 52.3609Z" fill="#F2EEEB"/>
<path d="M24.6689 48.8526C25.058 48.7642 25.6643 48.6987 26.2736 48.6987C27.1564 48.6987 27.7189 48.8559 28.1424 49.2161C28.4939 49.496 28.7111 49.92 28.7111 50.4782C28.7111 51.1675 28.2736 51.7732 27.5611 52.04V52.0679C28.208 52.2316 28.9658 52.7898 28.9658 53.8556C28.9658 54.4646 28.7346 54.9344 28.383 55.2749C27.9143 55.7366 27.1486 55.9445 26.0346 55.9445C25.4252 55.9445 24.9658 55.9003 24.6705 55.8659V48.8526H24.6689ZM25.5471 51.7732H26.3518C27.2721 51.7732 27.8158 51.2608 27.8158 50.5683C27.8158 49.7416 27.2189 49.4076 26.3283 49.4076C25.9205 49.4076 25.6893 49.4387 25.5455 49.4747V51.7732H25.5471ZM25.5471 55.1832C25.7268 55.2209 25.9689 55.2307 26.2877 55.2307C27.2002 55.2307 28.0393 54.8804 28.0393 53.8441C28.0393 52.875 27.2377 52.469 26.2783 52.4673H25.5471V55.1849V55.1832Z" fill="#F2EEEB"/>
<path d="M33.2532 53.6426L32.5501 55.8838H31.6392L33.9532 48.7559H35.0095L37.3329 55.8838H36.3938L35.6657 53.6426H33.2532ZM35.4876 52.9223L34.8142 50.871C34.6673 50.4044 34.5642 49.9804 34.4642 49.5711H34.4407C34.3438 49.9886 34.2376 50.4241 34.1032 50.8595L33.4329 52.9239H35.4892L35.4876 52.9223Z" fill="#F2EEEB"/>
<path d="M40.3452 48.7544H41.228V55.1063H44.1374V55.8839H40.3452V48.756V48.7544Z" fill="#F2EEEB"/>
<path d="M52.1719 48.7544V55.8823H51.2891V48.7544H52.1719Z" fill="#F2EEEB"/>
<path d="M55.7202 55.8838V48.7559H56.6858L58.8655 52.3591C59.3624 53.1956 59.7577 53.9454 60.0796 54.6805L60.1015 54.669C60.0218 53.7179 60.0062 52.8486 60.0062 51.7436V48.7559H60.8343V55.8838H59.9421L57.7796 52.2707C57.3108 51.4718 56.853 50.6582 56.514 49.8838L56.4843 49.8953C56.5374 50.7989 56.5483 51.6584 56.5483 52.8355V55.8838H55.7202Z" fill="#F2EEEB"/>
<path d="M65.8814 55.8838L63.6533 48.7559H64.608L65.6643 52.2707C65.9564 53.2317 66.208 54.101 66.3924 54.931H66.4158C66.6064 54.1075 66.8846 53.2104 67.1908 52.2822L68.3408 48.7559H69.2799L66.8486 55.8838H65.8783H65.8814Z" fill="#F2EEEB"/>
<path d="M75.5545 52.541H72.917V55.1161H75.867V55.8823H72.0342V48.7544H75.7123V49.5206H72.917V51.7781H75.5545V52.541Z" fill="#F2EEEB"/>
<path d="M78.9045 54.7609C79.2967 55.0179 79.8701 55.2225 80.4748 55.2225C81.3732 55.2225 81.9014 54.7314 81.9014 54.0095C81.9014 53.3481 81.5326 52.9584 80.6139 52.5983C79.5029 52.1857 78.8154 51.5735 78.8154 50.5765C78.8154 49.4665 79.6951 48.6431 81.0217 48.6431C81.7123 48.6431 82.2264 48.8117 82.5232 48.9869L82.2779 49.7416C82.0607 49.6073 81.6061 49.4027 80.9936 49.4027C80.0592 49.4027 79.7061 49.9822 79.7061 50.4684C79.7061 51.1298 80.1201 51.4572 81.0592 51.837C82.2139 52.3118 82.7951 52.8913 82.7951 53.9374C82.7951 54.9835 82.0264 55.9936 80.4139 55.9936C79.7561 55.9936 79.0389 55.7857 78.6748 55.5287L78.9061 54.7609H78.9045Z" fill="#F2EEEB"/>
<path d="M87.3126 49.532H85.2407V48.7544H90.2798V49.532H88.197V55.8823H87.3142V49.532H87.3126Z" fill="#F2EEEB"/>
<path d="M98.7717 52.7536C98.7186 51.7632 98.6576 50.5599 98.6639 49.6792H98.6357C98.4014 50.5059 98.1185 51.4047 97.7795 52.382L96.5779 55.8396H95.9139L94.8061 52.4459C94.4826 51.439 94.2186 50.5239 94.0264 49.6792H94.0029C93.9795 50.5681 93.9357 51.755 93.8701 52.824L93.6889 55.8838H92.8545L93.3279 48.7559H94.4498L95.6076 52.2068C95.8873 53.0794 96.117 53.8652 96.2936 54.6085H96.3201C96.4982 53.8865 96.7373 53.1007 97.0404 52.2068L98.2545 48.7559H99.3779L99.7998 55.8838H98.9357L98.7717 52.7536Z" fill="#F2EEEB"/>
<path d="M106.686 52.541H104.048V55.1161H106.998V55.8823H103.166V48.7544H106.844V49.5206H104.048V51.7781H106.686V52.541Z" fill="#F2EEEB"/>
<path d="M110.15 55.8838V48.7559H111.116L113.295 52.3591C113.792 53.1956 114.187 53.9454 114.509 54.6805L114.531 54.669C114.451 53.7179 114.436 52.8486 114.436 51.7436V48.7559H115.264V55.8838H114.372L112.209 52.2707C111.741 51.4718 111.283 50.6582 110.944 49.8838L110.914 49.8953C110.967 50.7989 110.978 51.6584 110.978 52.8355V55.8838H110.15Z" fill="#F2EEEB"/>
<path d="M120.111 49.532H118.039V48.7544H123.078V49.532H120.995V55.8823H120.112V49.532H120.111Z" fill="#F2EEEB"/>
<path d="M125.674 54.7609C126.066 55.0179 126.639 55.2225 127.244 55.2225C128.142 55.2225 128.67 54.7314 128.67 54.0095C128.67 53.3481 128.302 52.9584 127.383 52.5983C126.272 52.1857 125.584 51.5735 125.584 50.5765C125.584 49.4665 126.464 48.6431 127.791 48.6431C128.481 48.6431 128.995 48.8117 129.292 48.9869L129.047 49.7416C128.83 49.6073 128.375 49.4027 127.763 49.4027C126.828 49.4027 126.475 49.9822 126.475 50.4684C126.475 51.1298 126.889 51.4572 127.828 51.837C128.983 52.3118 129.564 52.8913 129.564 53.9374C129.564 54.9835 128.795 55.9936 127.183 55.9936C126.525 55.9936 125.808 55.7857 125.444 55.5287L125.675 54.7609H125.674Z" fill="#F2EEEB"/>
</g>
<defs>
<clipPath id="clip0_5805_2861">
<rect width="130" height="56" fill="white"/>
</clipPath>
</defs>
</svg>
