<svg width="130" height="56" viewBox="0 0 130 56" fill="none" xmlns="http://www.w3.org/2000/svg">
<g clip-path="url(#clip0_5543_823)">
<path d="M40 0H0V41.9095H40V0Z" fill="#836F59"/>
<path d="M85 0H45V41.9095H85V0Z" fill="#836F59"/>
<path d="M130 0H90V41.9095H130V0Z" fill="#836F59"/>
<path d="M28.8172 7.02804H30.2984L32.9063 16.3136L30.9938 16.8326C29.9656 14.6896 29.1828 13.2523 28.6484 12.5188C27.7703 11.3336 26.6766 10.3955 25.3672 9.70304C24.0578 9.01055 22.6141 8.66513 21.0375 8.66513C19.1859 8.66513 17.6219 9.14807 16.0656 10.114C14.5094 11.0798 13.2484 12.4959 12.2813 14.3606C11.3156 16.2252 10.8313 18.324 10.8313 20.6552C10.8313 22.9864 11.3219 25.1916 12.3016 27.0693C13.2813 28.9471 14.6078 30.3926 16.2813 31.406C17.9547 32.4193 19.6172 32.9252 21.55 32.9252C23.3734 32.9252 25.2391 32.4177 27.1453 31.4027C29.0516 30.3877 30.7031 28.9651 32.1016 27.1348L33.7469 28.2333C32.8969 29.4578 31.9781 30.4957 30.9906 31.3487C29.4281 32.7206 27.8016 33.7323 26.1156 34.3838C24.4297 35.0354 22.5781 35.3628 20.5625 35.3628C16.1063 35.3628 12.4859 33.7585 9.70157 30.5514C7.39688 27.8895 6.24532 24.7217 6.24532 21.0465C6.24532 18.3436 6.88282 15.8978 8.15781 13.709C9.43281 11.5202 11.1906 9.77835 13.4328 8.48668C15.675 7.19502 18.0906 6.55 20.6828 6.55C22.0672 6.55 23.3531 6.73336 24.5391 7.09843C25.725 7.46514 26.9281 8.05285 28.1484 8.86485L28.8109 7.02804H28.8172Z" fill="#F2EEEB"/>
<path d="M58.75 6.54837H71.25V8.28368H69.5922C68.9281 8.28368 68.4469 8.39501 68.15 8.61601C67.8516 8.83702 67.6344 9.15298 67.4984 9.56062C67.3609 9.96989 67.2922 10.7622 67.2922 11.9393V30.5072C67.2922 31.4436 67.3656 32.1083 67.5156 32.4995C67.6641 32.8925 67.8734 33.1773 68.1422 33.3574C68.4109 33.5358 68.8938 33.6259 69.5922 33.6259H71.25V35.3612H58.75V33.6259H60.4766C61.1516 33.6259 61.6297 33.5326 61.9094 33.3476C62.1891 33.1609 62.3922 32.8925 62.5187 32.5421C62.6437 32.1918 62.7078 31.5124 62.7078 30.5072V11.5055C62.7078 10.4381 62.6437 9.72105 62.5187 9.35434C62.3922 8.98763 62.1891 8.71751 61.9094 8.54398C61.6281 8.37045 61.1516 8.28368 60.4766 8.28368H58.75V6.54837Z" fill="#F2EEEB"/>
<path d="M96.25 8.28368V6.54837H105.794C110.163 6.54837 113.209 6.84468 114.934 7.43731C117.477 8.30497 119.539 9.92241 121.125 12.2913C122.875 14.9074 123.75 17.9163 123.75 21.3166C123.75 23.6298 123.319 25.7809 122.456 27.7716C121.594 29.7623 120.459 31.3618 119.055 32.5732C117.892 33.5931 116.492 34.3118 114.858 34.7309C113.222 35.1516 111.575 35.3612 109.914 35.3612H96.25V33.6259H97.3609L97.725 33.6471C98.1969 33.6471 98.5844 33.544 98.8844 33.3377C99.1844 33.1315 99.3984 32.8564 99.5266 32.511C99.6156 32.2491 99.6609 31.6433 99.6609 30.6938V11.4236C99.6609 10.3284 99.5969 9.62119 99.4688 9.30359C99.2891 8.87467 99.0016 8.57672 98.6063 8.40974C98.3766 8.32625 97.5906 8.28532 96.2484 8.28532L96.25 8.28368ZM103.125 33.1511H107.855C108.43 33.1511 109.656 33.0414 110.994 32.8204C112.33 32.5994 113.016 32.3309 113.591 32.015C114.434 31.5468 115.898 30.7921 116.691 29.7509C117.483 28.7097 118.094 27.4639 118.522 26.0085C118.95 24.5547 119.166 22.8915 119.166 21.017C119.166 19.1425 118.952 17.5447 118.522 16.1794C118.094 14.8157 117.447 13.5879 116.584 12.4992C115.72 11.4105 114.763 10.5805 113.706 10.0075C112.65 9.43456 111.097 9.0744 109.792 8.92215C109.089 8.85339 107.641 8.81901 105.991 8.81901H103.122V33.1495L103.125 33.1511Z" fill="#F2EEEB"/>
<path d="M5.95001 55.5629C5.55626 55.7184 4.775 55.9542 3.85782 55.9542C2.82657 55.9542 1.97501 55.6808 1.31407 55.0128C0.72813 54.4219 0.36563 53.4756 0.367193 52.3657C0.370318 50.2391 1.76563 48.6838 4.04532 48.6838C4.83125 48.6838 5.45469 48.8656 5.74688 49.0113L5.52813 49.7627C5.16563 49.5892 4.71094 49.4582 4.02501 49.4582C2.37501 49.4582 1.29219 50.5354 1.29219 52.3198C1.29219 54.1043 2.32657 55.1962 3.91876 55.1962C4.49375 55.1962 4.88282 55.1111 5.08594 55.0047V52.8813H3.70938V52.1447H5.95001V55.5662V55.5629Z" fill="#836F59"/>
<path d="M9.30469 48.7542H10.1875V55.1061H13.0969V55.8838H9.30469V48.7559V48.7542Z" fill="#836F59"/>
<path d="M21.5125 52.2478C21.5125 54.6936 20.0906 56 18.3563 56C16.6219 56 15.2984 54.5364 15.2984 52.382C15.2984 50.2276 16.6328 48.638 18.4484 48.638C20.2641 48.638 21.5125 50.1294 21.5125 52.2478ZM16.2281 52.3607C16.2281 53.8865 17.0188 55.2518 18.4047 55.2518C19.7906 55.2518 20.5844 53.9094 20.5844 52.2887C20.5844 50.8693 19.8781 49.3878 18.4156 49.3878C16.9531 49.3878 16.2281 50.8022 16.2281 52.3607Z" fill="#836F59"/>
<path d="M24.6688 48.8525C25.0578 48.7641 25.6641 48.6986 26.2734 48.6986C27.1563 48.6986 27.7188 48.8557 28.1422 49.2159C28.4938 49.4958 28.7109 49.9198 28.7109 50.4781C28.7109 51.1673 28.2734 51.773 27.5609 52.0399V52.0677C28.2078 52.2314 28.9656 52.7897 28.9656 53.8554C28.9656 54.4644 28.7344 54.9343 28.3828 55.2748C27.9141 55.7364 27.1484 55.9443 26.0344 55.9443C25.425 55.9443 24.9656 55.9001 24.6703 55.8658V48.8525H24.6688ZM25.5469 51.773H26.3516C27.2719 51.773 27.8156 51.2606 27.8156 50.5681C27.8156 49.7414 27.2188 49.4074 26.3281 49.4074C25.9203 49.4074 25.6891 49.4385 25.5453 49.4746V51.773H25.5469ZM25.5469 55.1831C25.7266 55.2207 25.9688 55.2306 26.2875 55.2306C27.2 55.2306 28.0391 54.8802 28.0391 53.8439C28.0391 52.8748 27.2375 52.4688 26.2781 52.4672H25.5469V55.1847V55.1831Z" fill="#836F59"/>
<path d="M33.2531 53.6426L32.55 55.8838H31.6391L33.9531 48.7559H35.0094L37.3328 55.8838H36.3938L35.6656 53.6426H33.2531ZM35.4875 52.9223L34.8141 50.871C34.6672 50.4044 34.5641 49.9804 34.4641 49.5711H34.4406C34.3438 49.9886 34.2375 50.4241 34.1031 50.8595L33.4328 52.9239H35.4891L35.4875 52.9223Z" fill="#836F59"/>
<path d="M40.3453 48.7542H41.2281V55.1061H44.1375V55.8838H40.3453V48.7559V48.7542Z" fill="#836F59"/>
<path d="M52.1719 48.7542V55.8821H51.2891V48.7542H52.1719Z" fill="#836F59"/>
<path d="M55.7203 55.8838V48.7559H56.6859L58.8656 52.3591C59.3625 53.1957 59.7578 53.9454 60.0797 54.6805L60.1016 54.669C60.0219 53.7179 60.0062 52.8486 60.0062 51.7436V48.7559H60.8344V55.8838H59.9422L57.7797 52.2707C57.3109 51.4718 56.8531 50.6582 56.5141 49.8838L56.4844 49.8953C56.5375 50.799 56.5484 51.6584 56.5484 52.8355V55.8838H55.7203Z" fill="#836F59"/>
<path d="M65.8813 55.8838L63.6531 48.7559H64.6078L65.6641 52.2707C65.9563 53.2317 66.2078 54.101 66.3922 54.931H66.4156C66.6063 54.1075 66.8844 53.2104 67.1906 52.2822L68.3406 48.7559H69.2797L66.8484 55.8838H65.8781H65.8813Z" fill="#836F59"/>
<path d="M75.5547 52.5408H72.9172V55.116H75.8672V55.8821H72.0344V48.7542H75.7125V49.5204H72.9172V51.7779H75.5547V52.5408Z" fill="#836F59"/>
<path d="M78.9047 54.7607C79.2969 55.0177 79.8703 55.2224 80.475 55.2224C81.3734 55.2224 81.9015 54.7313 81.9015 54.0093C81.9015 53.3479 81.5328 52.9583 80.6141 52.5981C79.5031 52.1856 78.8156 51.5733 78.8156 50.5763C78.8156 49.4664 79.6953 48.6429 81.0219 48.6429C81.7125 48.6429 82.2266 48.8115 82.5234 48.9867L82.2781 49.7414C82.0609 49.6072 81.6062 49.4025 80.9937 49.4025C80.0594 49.4025 79.7062 49.9821 79.7062 50.4683C79.7062 51.1297 80.1203 51.4571 81.0594 51.8369C82.2141 52.3116 82.7953 52.8912 82.7953 53.9373C82.7953 54.9834 82.0266 55.9935 80.4141 55.9935C79.7562 55.9935 79.0391 55.7855 78.675 55.5285L78.9062 54.7607H78.9047Z" fill="#836F59"/>
<path d="M87.3125 49.5318H85.2406V48.7542H90.2797V49.5318H88.1969V55.8821H87.3141V49.5318H87.3125Z" fill="#836F59"/>
<path d="M98.7719 52.7536C98.7188 51.7632 98.6578 50.5599 98.6641 49.6792H98.636C98.4016 50.5059 98.1188 51.4047 97.7797 52.382L96.5781 55.8396H95.9141L94.8063 52.4459C94.4828 51.4391 94.2188 50.5239 94.0266 49.6792H94.0031C93.9797 50.5681 93.936 51.755 93.8703 52.824L93.6891 55.8838H92.8547L93.3281 48.7559H94.45L95.6078 52.2069C95.8875 53.0794 96.1172 53.8652 96.2938 54.6085H96.3203C96.4985 53.8865 96.7375 53.1007 97.0406 52.2069L98.2547 48.7559H99.3781L99.8 55.8838H98.936L98.7719 52.7536Z" fill="#836F59"/>
<path d="M106.686 52.5408H104.048V55.116H106.998V55.8821H103.166V48.7542H106.844V49.5204H104.048V51.7779H106.686V52.5408Z" fill="#836F59"/>
<path d="M110.15 55.8838V48.7559H111.116L113.295 52.3591C113.792 53.1957 114.187 53.9454 114.509 54.6805L114.531 54.669C114.452 53.7179 114.436 52.8486 114.436 51.7436V48.7559H115.264V55.8838H114.372L112.209 52.2707C111.741 51.4718 111.283 50.6582 110.944 49.8838L110.914 49.8953C110.967 50.799 110.978 51.6584 110.978 52.8355V55.8838H110.15Z" fill="#836F59"/>
<path d="M120.111 49.5318H118.039V48.7542H123.078V49.5318H120.995V55.8821H120.112V49.5318H120.111Z" fill="#836F59"/>
<path d="M125.673 54.7607C126.066 55.0177 126.639 55.2224 127.244 55.2224C128.142 55.2224 128.67 54.7313 128.67 54.0093C128.67 53.3479 128.302 52.9583 127.383 52.5981C126.272 52.1856 125.584 51.5733 125.584 50.5763C125.584 49.4664 126.464 48.6429 127.791 48.6429C128.481 48.6429 128.995 48.8115 129.292 48.9867L129.047 49.7414C128.83 49.6072 128.375 49.4025 127.763 49.4025C126.828 49.4025 126.475 49.9821 126.475 50.4683C126.475 51.1297 126.889 51.4571 127.828 51.8369C128.983 52.3116 129.564 52.8912 129.564 53.9373C129.564 54.9834 128.795 55.9935 127.183 55.9935C126.525 55.9935 125.808 55.7855 125.444 55.5285L125.675 54.7607H125.673Z" fill="#836F59"/>
</g>
<defs>
<clipPath id="clip0_5543_823">
<rect width="130" height="56" fill="white"/>
</clipPath>
</defs>
</svg>
