<svg
  xmlns="http://www.w3.org/2000/svg"
  width="172"
  height="74"
  viewBox="0 0 172 74"
  fill="none"
>
  <g clip-path="url(#clip0_5255_559)">
    <path
      d="M52.9231 0H0V55.3805H52.9231V0Z"
      fill="#836F59"
    />
    <path
      d="M112.462 0H59.5385V55.3805H112.462V0Z"
      fill="#836F59"
    />
    <path
      d="M172 0H119.077V55.3805H172V0Z"
      fill="#836F59"
    />
    <path
      d="M38.1274 9.28705H40.0872L43.5375 21.5573L41.0071 22.243C39.6468 19.4113 38.6111 17.5119 37.9041 16.5428C36.7423 14.9765 35.2951 13.737 33.5627 12.8219C31.8303 11.9068 29.9201 11.4503 27.8342 11.4503C25.3845 11.4503 23.3151 12.0885 21.2561 13.3649C19.197 14.6412 17.5287 16.5125 16.249 18.9765C14.9714 21.4405 14.3306 24.2138 14.3306 27.2944C14.3306 30.3749 14.9797 33.2889 16.2759 35.7702C17.5721 38.2515 19.3273 40.1617 21.5413 41.5007C23.7554 42.8398 25.955 43.5083 28.5123 43.5083C30.9249 43.5083 33.3932 42.8377 35.9153 41.4964C38.4375 40.1552 40.6226 38.2753 42.4728 35.8567L44.6497 37.3083C43.5251 38.9264 42.3095 40.298 41.003 41.425C38.9357 43.2379 36.7836 44.5748 34.553 45.4358C32.3224 46.2968 29.8726 46.7294 27.2058 46.7294C21.3098 46.7294 16.5199 44.6094 12.8359 40.3715C9.78664 36.854 8.26303 32.668 8.26303 27.8114C8.26303 24.2398 9.10649 21.0078 10.7934 18.1155C12.4803 15.2231 14.8061 12.9214 17.7726 11.2145C20.7392 9.5077 23.9353 8.65536 27.365 8.65536C29.1966 8.65536 30.898 8.89765 32.4671 9.38007C34.0362 9.86465 35.628 10.6413 37.2425 11.7143L38.1191 9.28705H38.1274Z"
      fill="white"
    />
    <path
      d="M77.7308 8.6532H94.2692V10.9463H92.0758C91.1972 10.9463 90.5605 11.0934 90.1677 11.3854C89.7728 11.6775 89.4855 12.095 89.3056 12.6337C89.1237 13.1745 89.0327 14.2215 89.0327 15.7769V40.3131C89.0327 41.5505 89.1299 42.4288 89.3284 42.9458C89.5248 43.465 89.8018 43.8414 90.1574 44.0794C90.5129 44.3152 91.1517 44.4342 92.0758 44.4342H94.2692V46.7273H77.7308V44.4342H80.0151C80.9082 44.4342 81.5408 44.3109 81.9109 44.0664C82.2809 43.8198 82.5497 43.465 82.7171 43.0021C82.8825 42.5391 82.9673 41.6414 82.9673 40.3131V15.2037C82.9673 13.7932 82.8825 12.8457 82.7171 12.3611C82.5497 11.8765 82.2809 11.5196 81.9109 11.2903C81.5388 11.061 80.9082 10.9463 80.0151 10.9463H77.7308V8.6532Z"
      fill="white"
    />
    <path
      d="M127.346 10.9463V8.6532H139.973C145.753 8.6532 149.785 9.04476 152.067 9.82787C155.431 10.9744 158.159 13.1118 160.258 16.2421C162.573 19.699 163.731 23.6752 163.731 28.1683C163.731 31.2251 163.16 34.0676 162.019 36.6982C160.878 39.3288 159.377 41.4423 157.519 43.0432C155.98 44.3909 154.128 45.3406 151.966 45.8944C149.801 46.4504 147.622 46.7273 145.425 46.7273H127.346V44.4342H128.816L129.298 44.4623C129.922 44.4623 130.435 44.326 130.832 44.0534C131.229 43.7809 131.512 43.4174 131.681 42.961C131.799 42.6148 131.859 41.8144 131.859 40.5597V15.0955C131.859 13.6483 131.774 12.7137 131.605 12.294C131.367 11.7272 130.987 11.3335 130.464 11.1129C130.16 11.0025 129.12 10.9485 127.344 10.9485L127.346 10.9463ZM136.442 43.8068H142.7C143.461 43.8068 145.084 43.6619 146.853 43.3698C148.621 43.0778 149.528 42.723 150.289 42.3055C151.405 41.6868 153.343 40.6895 154.391 39.3136C155.439 37.9378 156.247 36.2915 156.814 34.3683C157.38 32.4473 157.665 30.2494 157.665 27.7724C157.665 25.2955 157.382 23.1841 156.814 21.3799C156.247 19.5779 155.391 17.9554 154.25 16.5168C153.107 15.0782 151.84 13.9814 150.442 13.2243C149.045 12.4671 146.99 11.9912 145.264 11.79C144.333 11.6991 142.417 11.6537 140.234 11.6537H136.438V43.8047L136.442 43.8068Z"
      fill="white"
    />
    <path
      d="M7.87231 73.4224C7.35135 73.6279 6.31769 73.9394 5.10418 73.9394C3.73976 73.9394 2.61308 73.5782 1.7386 72.6955C0.963364 71.9146 0.483749 70.6642 0.485816 69.1975C0.489951 66.3874 2.33606 64.3322 5.35226 64.3322C6.39211 64.3322 7.21697 64.5724 7.60356 64.7649L7.31413 65.7578C6.83452 65.5285 6.23293 65.3555 5.32538 65.3555C3.14231 65.3555 1.70966 66.7789 1.70966 69.1369C1.70966 71.4949 3.07822 72.9378 5.18481 72.9378C5.94558 72.9378 6.46033 72.8253 6.72908 72.6847V69.8789H4.90779V68.9054H7.87231V73.4267V73.4224Z"
      fill="#836F59"
    />
    <path
      d="M12.3108 64.4252H13.4788V72.8188H17.3282V73.8464H12.3108V64.4274V64.4252Z"
      fill="#836F59"
    />
    <path
      d="M28.4627 69.0417C28.4627 72.2737 26.5814 74 24.2867 74C21.992 74 20.241 72.066 20.241 69.2191C20.241 66.3722 22.0065 64.2716 24.4087 64.2716C26.8109 64.2716 28.4627 66.2424 28.4627 69.0417ZM21.4711 69.191C21.4711 71.2072 22.5171 73.0114 24.3508 73.0114C26.1845 73.0114 27.2347 71.2375 27.2347 69.0958C27.2347 67.2202 26.3003 65.2624 24.3653 65.2624C22.4303 65.2624 21.4711 67.1315 21.4711 69.191Z"
      fill="#836F59"
    />
    <path
      d="M32.6387 64.555C33.1534 64.4382 33.9555 64.3517 34.7618 64.3517C35.9298 64.3517 36.674 64.5594 37.2343 65.0353C37.6994 65.4052 37.9868 65.9655 37.9868 66.7032C37.9868 67.6139 37.4079 68.4144 36.4652 68.767V68.8038C37.3211 69.0201 38.3238 69.7578 38.3238 71.1661C38.3238 71.9708 38.0178 72.5917 37.5526 73.0417C36.9325 73.6517 35.9195 73.9265 34.4455 73.9265C33.6392 73.9265 33.0314 73.868 32.6407 73.8226V64.555H32.6387ZM33.8005 68.4144H34.8651C36.0828 68.4144 36.8022 67.7373 36.8022 66.8222C36.8022 65.7297 36.0125 65.2884 34.8341 65.2884C34.2946 65.2884 33.9886 65.3295 33.7984 65.3771V68.4144H33.8005ZM33.8005 72.9205C34.0382 72.9703 34.3587 72.9832 34.7804 72.9832C35.9877 72.9832 37.0978 72.5203 37.0978 71.1509C37.0978 69.8703 36.0373 69.3338 34.768 69.3316H33.8005V72.9227V72.9205Z"
      fill="#836F59"
    />
    <path
      d="M43.9964 70.8849L43.0662 73.8464H41.8609L44.9226 64.4274H46.3201L49.3942 73.8464H48.1517L47.1884 70.8849H43.9964ZM46.9527 69.933L46.0617 67.2224C45.8674 66.6058 45.7309 66.0455 45.5986 65.5047H45.5676C45.4394 66.0564 45.2988 66.6318 45.1211 67.2072L44.2342 69.9352H46.9548L46.9527 69.933Z"
      fill="#836F59"
    />
    <path
      d="M53.3799 64.4252H54.548V72.8188H58.3973V73.8464H53.3799V64.4274V64.4252Z"
      fill="#836F59"
    />
    <path
      d="M69.0274 64.4252V73.8442H67.8594V64.4252H69.0274Z"
      fill="#836F59"
    />
    <path
      d="M73.7223 73.8464V64.4274H74.9999L77.8838 69.1888C78.5412 70.2943 79.0642 71.2851 79.4901 72.2564L79.519 72.2412C79.4136 70.9844 79.3929 69.8356 79.3929 68.3754V64.4274H80.4886V73.8464H79.3081L76.447 69.072C75.8268 68.0163 75.2211 66.9411 74.7725 65.9179L74.7332 65.9331C74.8035 67.1272 74.8179 68.2629 74.8179 69.8183V73.8464H73.7223Z"
      fill="#836F59"
    />
    <path
      d="M87.166 73.8464L84.218 64.4274H85.4811L86.8786 69.072C87.2652 70.3419 87.598 71.4906 87.842 72.5874H87.873C88.1252 71.4992 88.4932 70.3137 88.8984 69.0871L90.4199 64.4274H91.6624L88.4456 73.8464H87.1618H87.166Z"
      fill="#836F59"
    />
    <path
      d="M99.9647 69.4289H96.475V72.8318H100.378V73.8442H95.307V64.4252H100.173V65.4377H96.475V68.4208H99.9647V69.4289Z"
      fill="#836F59"
    />
    <path
      d="M104.397 72.3624C104.916 72.702 105.675 72.9724 106.475 72.9724C107.663 72.9724 108.362 72.3234 108.362 71.3694C108.362 70.4955 107.874 69.9806 106.659 69.5047C105.189 68.9595 104.279 68.1504 104.279 66.833C104.279 65.3663 105.443 64.2781 107.198 64.2781C108.112 64.2781 108.792 64.501 109.185 64.7324L108.86 65.7297C108.573 65.5523 107.971 65.2819 107.161 65.2819C105.925 65.2819 105.458 66.0477 105.458 66.6902C105.458 67.5642 106.005 67.9968 107.248 68.4987C108.776 69.1261 109.545 69.8919 109.545 71.2742C109.545 72.6566 108.527 73.9913 106.394 73.9913C105.524 73.9913 104.575 73.7166 104.093 73.377L104.399 72.3624H104.397Z"
      fill="#836F59"
    />
    <path
      d="M115.521 65.4528H112.78V64.4252H119.447V65.4528H116.691V73.8442H115.523V65.4528H115.521Z"
      fill="#836F59"
    />
    <path
      d="M130.683 69.7102C130.612 68.4014 130.532 66.8114 130.54 65.6475H130.503C130.193 66.74 129.819 67.9276 129.37 69.2191L127.78 73.788H126.902L125.436 69.3035C125.008 67.973 124.659 66.7638 124.404 65.6475H124.373C124.342 66.8222 124.284 68.3906 124.198 69.8032L123.958 73.8464H122.854L123.48 64.4274H124.965L126.496 68.9876C126.867 70.1407 127.17 71.1791 127.404 72.1612H127.439C127.675 71.2072 127.991 70.1688 128.392 68.9876L129.998 64.4274H131.485L132.043 73.8464H130.9L130.683 69.7102Z"
      fill="#836F59"
    />
    <path
      d="M141.154 69.4289H137.664V72.8318H141.567V73.8442H136.496V64.4252H141.363V65.4377H137.664V68.4208H141.154V69.4289Z"
      fill="#836F59"
    />
    <path
      d="M145.737 73.8464V64.4274H147.015L149.898 69.1888C150.556 70.2943 151.079 71.2851 151.505 72.2564L151.534 72.2412C151.428 70.9844 151.408 69.8356 151.408 68.3754V64.4274H152.503V73.8464H151.323L148.462 69.072C147.841 68.0163 147.236 66.9411 146.787 65.9179L146.748 65.9331C146.818 67.1272 146.833 68.2629 146.833 69.8183V73.8464H145.737Z"
      fill="#836F59"
    />
    <path
      d="M158.916 65.4528H156.175V64.4252H162.842V65.4528H160.086V73.8442H158.918V65.4528H158.916Z"
      fill="#836F59"
    />
    <path
      d="M166.276 72.3624C166.795 72.702 167.553 72.9724 168.353 72.9724C169.542 72.9724 170.241 72.3234 170.241 71.3694C170.241 70.4955 169.753 69.9806 168.537 69.5047C167.067 68.9595 166.158 68.1504 166.158 66.833C166.158 65.3663 167.322 64.2781 169.077 64.2781C169.991 64.2781 170.671 64.501 171.064 64.7324L170.739 65.7297C170.452 65.5523 169.85 65.2819 169.04 65.2819C167.803 65.2819 167.336 66.0477 167.336 66.6902C167.336 67.5642 167.884 67.9968 169.126 68.4987C170.654 69.1261 171.423 69.8919 171.423 71.2742C171.423 72.6566 170.406 73.9913 168.273 73.9913C167.402 73.9913 166.453 73.7166 165.972 73.377L166.278 72.3624H166.276Z"
      fill="#836F59"
    />
  </g>
  <defs>
    <clipPath id="clip0_5255_559">
      <rect
        width="172"
        height="74"
        fill="white"
      />
    </clipPath>
  </defs>
</svg>