<svg
  xmlns="http://www.w3.org/2000/svg"
  width="172"
  height="74"
  viewBox="0 0 172 74"
  fill="none"
>
  <g clip-path="url(#clip0_5255_585)">
    <path
      d="M52.9231 0H0V55.3805H52.9231V0Z"
      fill="white"
    />
    <path
      d="M112.462 0H59.5385V55.3805H112.462V0Z"
      fill="white"
    />
    <path
      d="M172 0H119.077V55.3805H172V0Z"
      fill="white"
    />
    <path
      d="M38.1274 9.28696H40.0872L43.5375 21.5572L41.0071 22.243C39.6468 19.4112 38.6111 17.5118 37.9041 16.5427C36.7423 14.9764 35.2951 13.7369 33.5627 12.8218C31.8303 11.9067 29.9201 11.4503 27.8342 11.4503C25.3845 11.4503 23.3151 12.0884 21.2561 13.3648C19.197 14.6411 17.5287 16.5124 16.249 18.9764C14.9714 21.4404 14.3306 24.2137 14.3306 27.2943C14.3306 30.3748 14.9797 33.2888 16.2759 35.7701C17.5721 38.2514 19.3273 40.1616 21.5413 41.5007C23.7554 42.8397 25.955 43.5082 28.5123 43.5082C30.9249 43.5082 33.3932 42.8376 35.9153 41.4963C38.4375 40.1551 40.6226 38.2752 42.4728 35.8566L44.6497 37.3082C43.5251 38.9263 42.3095 40.2979 41.003 41.4249C38.9357 43.2378 36.7836 44.5747 34.553 45.4357C32.3224 46.2967 29.8726 46.7294 27.2058 46.7294C21.3098 46.7294 16.5199 44.6093 12.8359 40.3714C9.78664 36.8539 8.26303 32.6679 8.26303 27.8113C8.26303 24.2397 9.10649 21.0077 10.7934 18.1154C12.4803 15.2231 14.8061 12.9213 17.7726 11.2145C20.7392 9.50761 23.9353 8.65527 27.365 8.65527C29.1966 8.65527 30.898 8.89756 32.4671 9.37998C34.0362 9.86456 35.628 10.6412 37.2425 11.7142L38.1191 9.28696H38.1274Z"
      fill="#024873"
    />
    <path
      d="M77.7308 8.65332H94.2692V10.9464H92.0758C91.1972 10.9464 90.5605 11.0935 90.1677 11.3856C89.7728 11.6776 89.4855 12.0951 89.3056 12.6338C89.1237 13.1746 89.0327 14.2217 89.0327 15.7771V40.3132C89.0327 41.5506 89.1299 42.4289 89.3284 42.946C89.5248 43.4651 89.8018 43.8416 90.1574 44.0795C90.5129 44.3153 91.1517 44.4343 92.0758 44.4343H94.2692V46.7274H77.7308V44.4343H80.0151C80.9082 44.4343 81.5408 44.311 81.9109 44.0665C82.2809 43.8199 82.5497 43.4651 82.7171 43.0022C82.8825 42.5392 82.9673 41.6415 82.9673 40.3132V15.2038C82.9673 13.7933 82.8825 12.8458 82.7171 12.3612C82.5497 11.8766 82.2809 11.5197 81.9109 11.2904C81.5388 11.0611 80.9082 10.9464 80.0151 10.9464H77.7308V8.65332Z"
      fill="#024873"
    />
    <path
      d="M127.346 10.9464V8.65332H139.973C145.753 8.65332 149.785 9.04488 152.067 9.82799C155.431 10.9745 158.159 13.1119 160.258 16.2422C162.573 19.6991 163.731 23.6753 163.731 28.1684C163.731 31.2252 163.16 34.0678 162.019 36.6983C160.878 39.3289 159.377 41.4425 157.519 43.0433C155.98 44.391 154.128 45.3407 151.966 45.8945C149.801 46.4505 147.622 46.7274 145.425 46.7274H127.346V44.4343H128.816L129.298 44.4624C129.922 44.4624 130.435 44.3261 130.832 44.0536C131.229 43.781 131.512 43.4175 131.681 42.9611C131.799 42.615 131.859 41.8145 131.859 40.5598V15.0956C131.859 13.6484 131.774 12.7138 131.605 12.2942C131.367 11.7274 130.987 11.3336 130.464 11.113C130.16 11.0027 129.12 10.9486 127.344 10.9486L127.346 10.9464ZM136.442 43.8069H142.7C143.461 43.8069 145.084 43.662 146.853 43.37C148.621 43.0779 149.528 42.7231 150.289 42.3056C151.405 41.6869 153.343 40.6896 154.391 39.3138C155.439 37.9379 156.247 36.2916 156.814 34.3685C157.38 32.4475 157.665 30.2495 157.665 27.7726C157.665 25.2956 157.382 23.1842 156.814 21.38C156.247 19.578 155.391 17.9555 154.25 16.5169C153.107 15.0783 151.84 13.9815 150.442 13.2244C149.045 12.4672 146.99 11.9913 145.264 11.7901C144.333 11.6992 142.417 11.6538 140.234 11.6538H136.438V43.8048L136.442 43.8069Z"
      fill="#024873"
    />
    <path
      d="M7.87231 73.4222C7.35135 73.6277 6.31769 73.9392 5.10418 73.9392C3.73976 73.9392 2.61308 73.578 1.7386 72.6953C0.963364 71.9144 0.483749 70.664 0.485816 69.1973C0.489951 66.3872 2.33606 64.332 5.35226 64.332C6.39211 64.332 7.21697 64.5722 7.60356 64.7647L7.31413 65.7576C6.83452 65.5283 6.23293 65.3553 5.32538 65.3553C3.14231 65.3553 1.70966 66.7787 1.70966 69.1367C1.70966 71.4947 3.07822 72.9376 5.18481 72.9376C5.94558 72.9376 6.46033 72.8251 6.72908 72.6845V69.8787H4.90779V68.9052H7.87231V73.4265V73.4222Z"
      fill="white"
    />
    <path
      d="M12.3108 64.4253H13.4788V72.8189H17.3282V73.8465H12.3108V64.4275V64.4253Z"
      fill="white"
    />
    <path
      d="M28.4627 69.0416C28.4627 72.2735 26.5814 73.9998 24.2867 73.9998C21.992 73.9998 20.241 72.0659 20.241 69.2189C20.241 66.372 22.0065 64.2715 24.4087 64.2715C26.8109 64.2715 28.4627 66.2422 28.4627 69.0416ZM21.4711 69.1908C21.4711 71.207 22.5171 73.0112 24.3508 73.0112C26.1845 73.0112 27.2347 71.2373 27.2347 69.0956C27.2347 67.2201 26.3003 65.2623 24.3653 65.2623C22.4303 65.2623 21.4711 67.1314 21.4711 69.1908Z"
      fill="white"
    />
    <path
      d="M32.6387 64.5549C33.1534 64.4381 33.9555 64.3516 34.7618 64.3516C35.9298 64.3516 36.674 64.5592 37.2343 65.0352C37.6994 65.4051 37.9868 65.9654 37.9868 66.7031C37.9868 67.6138 37.4079 68.4142 36.4652 68.7669V68.8036C37.3211 69.02 38.3238 69.7576 38.3238 71.166C38.3238 71.9707 38.0178 72.5916 37.5526 73.0415C36.9325 73.6516 35.9195 73.9263 34.4455 73.9263C33.6392 73.9263 33.0314 73.8679 32.6407 73.8225V64.5549H32.6387ZM33.8005 68.4142H34.8651C36.0828 68.4142 36.8022 67.7371 36.8022 66.8221C36.8022 65.7296 36.0125 65.2883 34.8341 65.2883C34.2946 65.2883 33.9886 65.3294 33.7984 65.377V68.4142H33.8005ZM33.8005 72.9204C34.0382 72.9701 34.3587 72.9831 34.7804 72.9831C35.9877 72.9831 37.0978 72.5202 37.0978 71.1508C37.0978 69.8701 36.0373 69.3336 34.768 69.3315H33.8005V72.9226V72.9204Z"
      fill="white"
    />
    <path
      d="M43.9964 70.8847L43.0662 73.8462H41.8609L44.9226 64.4272H46.3201L49.3942 73.8462H48.1517L47.1884 70.8847H43.9964ZM46.9527 69.9328L46.0617 67.2222C45.8674 66.6057 45.7309 66.0454 45.5986 65.5046H45.5676C45.4394 66.0562 45.2988 66.6316 45.1211 67.2071L44.2342 69.935H46.9548L46.9527 69.9328Z"
      fill="white"
    />
    <path
      d="M53.3799 64.4253H54.548V72.8189H58.3973V73.8465H53.3799V64.4275V64.4253Z"
      fill="white"
    />
    <path
      d="M69.0274 64.4253V73.8443H67.8594V64.4253H69.0274Z"
      fill="white"
    />
    <path
      d="M73.7223 73.8462V64.4272H74.9999L77.8838 69.1887C78.5412 70.2941 79.0642 71.2849 79.4901 72.2562L79.519 72.2411C79.4136 70.9842 79.3929 69.8355 79.3929 68.3753V64.4272H80.4886V73.8462H79.3081L76.447 69.0719C75.8268 68.0162 75.2211 66.941 74.7725 65.9178L74.7332 65.9329C74.8035 67.127 74.8179 68.2628 74.8179 69.8182V73.8462H73.7223Z"
      fill="white"
    />
    <path
      d="M87.166 73.8462L84.218 64.4272H85.4811L86.8786 69.0719C87.2652 70.3417 87.598 71.4904 87.842 72.5872H87.873C88.1252 71.4991 88.4932 70.3136 88.8984 69.087L90.4199 64.4272H91.6624L88.4456 73.8462H87.1618H87.166Z"
      fill="white"
    />
    <path
      d="M99.9647 69.429H96.475V72.8319H100.378V73.8443H95.307V64.4253H100.173V65.4377H96.475V68.4209H99.9647V69.429Z"
      fill="white"
    />
    <path
      d="M104.397 72.3621C104.916 72.7017 105.675 72.9721 106.475 72.9721C107.663 72.9721 108.362 72.3231 108.362 71.3691C108.362 70.4952 107.874 69.9803 106.659 69.5044C105.189 68.9592 104.279 68.1501 104.279 66.8327C104.279 65.366 105.443 64.2778 107.198 64.2778C108.112 64.2778 108.792 64.5007 109.185 64.7321L108.86 65.7294C108.573 65.552 107.971 65.2816 107.161 65.2816C105.925 65.2816 105.458 66.0474 105.458 66.6899C105.458 67.5639 106.005 67.9965 107.248 68.4984C108.776 69.1258 109.545 69.8916 109.545 71.2739C109.545 72.6563 108.527 73.991 106.394 73.991C105.524 73.991 104.575 73.7163 104.093 73.3767L104.399 72.3621H104.397Z"
      fill="white"
    />
    <path
      d="M115.521 65.4529H112.78V64.4253H119.447V65.4529H116.691V73.8443H115.523V65.4529H115.521Z"
      fill="white"
    />
    <path
      d="M130.683 69.71C130.612 68.4012 130.532 66.8112 130.54 65.6473H130.503C130.193 66.7398 129.819 67.9275 129.37 69.219L127.78 73.7878H126.902L125.436 69.3033C125.008 67.9729 124.659 66.7636 124.404 65.6473H124.373C124.342 66.822 124.284 68.3904 124.198 69.803L123.958 73.8462H122.854L123.48 64.4272H124.965L126.496 68.9875C126.867 70.1405 127.17 71.1789 127.404 72.161H127.439C127.675 71.207 127.991 70.1686 128.392 68.9875L129.998 64.4272H131.485L132.043 73.8462H130.9L130.683 69.71Z"
      fill="white"
    />
    <path
      d="M141.154 69.429H137.664V72.8319H141.567V73.8443H136.496V64.4253H141.363V65.4377H137.664V68.4209H141.154V69.429Z"
      fill="white"
    />
    <path
      d="M145.737 73.8462V64.4272H147.015L149.898 69.1887C150.556 70.2941 151.079 71.2849 151.505 72.2562L151.534 72.2411C151.428 70.9842 151.408 69.8355 151.408 68.3753V64.4272H152.503V73.8462H151.323L148.462 69.0719C147.841 68.0162 147.236 66.941 146.787 65.9178L146.748 65.9329C146.818 67.127 146.833 68.2628 146.833 69.8182V73.8462H145.737Z"
      fill="white"
    />
    <path
      d="M158.916 65.4529H156.175V64.4253H162.842V65.4529H160.086V73.8443H158.918V65.4529H158.916Z"
      fill="white"
    />
    <path
      d="M166.276 72.3621C166.795 72.7017 167.553 72.9721 168.353 72.9721C169.542 72.9721 170.241 72.3231 170.241 71.3691C170.241 70.4952 169.753 69.9803 168.537 69.5044C167.067 68.9592 166.158 68.1501 166.158 66.8327C166.158 65.366 167.322 64.2778 169.077 64.2778C169.991 64.2778 170.671 64.5007 171.064 64.7321L170.739 65.7294C170.452 65.552 169.85 65.2816 169.04 65.2816C167.803 65.2816 167.336 66.0474 167.336 66.6899C167.336 67.5639 167.884 67.9965 169.126 68.4984C170.654 69.1258 171.423 69.8916 171.423 71.2739C171.423 72.6563 170.406 73.991 168.273 73.991C167.402 73.991 166.453 73.7163 165.972 73.3767L166.278 72.3621H166.276Z"
      fill="white"
    />
  </g>
  <defs>
    <clipPath id="clip0_5255_585">
      <rect
        width="172"
        height="74"
        fill="white"
      />
    </clipPath>
  </defs>
</svg>