<svg width="180" height="180" viewBox="0 0 180 180" fill="none" xmlns="http://www.w3.org/2000/svg">
<path d="M180 0H0V180H180V0Z" fill="#836F59"/>
<path d="M129.677 30.1851H136.343L148.078 70.0664L139.472 72.2953C134.845 63.0914 131.323 56.918 128.918 53.768C124.966 48.6773 120.045 44.6484 114.152 41.6742C108.26 38.7 101.763 37.2164 94.6688 37.2164C86.3368 37.2164 79.2985 39.2906 72.2954 43.4391C65.2923 47.5875 59.6181 53.6695 55.2657 61.6781C50.9204 69.6867 48.7407 78.7008 48.7407 88.7133C48.7407 98.7258 50.9485 108.197 55.3571 116.262C59.7657 124.327 65.7352 130.535 73.2657 134.888C80.7962 139.24 88.2774 141.413 96.9751 141.413C105.181 141.413 113.576 139.233 122.154 134.873C130.732 130.514 138.164 124.404 144.457 116.543L151.861 121.261C148.036 126.52 143.902 130.978 139.458 134.641C132.427 140.534 125.107 144.879 117.52 147.677C109.934 150.476 101.602 151.882 92.5313 151.882C72.4782 151.882 56.1868 144.991 43.6571 131.217C33.286 119.784 28.104 106.179 28.104 90.3937C28.104 78.7852 30.9728 68.2805 36.7103 58.8797C42.4478 49.4789 50.3579 41.9976 60.4478 36.45C70.5376 30.9023 81.4079 28.132 93.0727 28.132C99.3024 28.132 105.089 28.9195 110.426 30.4875C115.763 32.0625 121.177 34.5867 126.668 38.0742L129.649 30.1851H129.677Z" fill="#F2EEEB"/>
</svg>
